# Blender 4.2.2 LTS
# www.blender.org
mtllib untitled.mtl
o Plane
v 4.000000 2.500000 0.000000
v -4.000000 0.000000 -4.000000
v 4.000000 0.000000 -4.000000
v -4.000000 0.000000 0.000000
v -4.000000 2.500000 4.000000
v 4.000000 2.500000 4.000000
v -4.000000 2.500000 -4.000000
v 4.000000 5.000000 4.000000
v -4.000000 5.000000 -4.000000
v 4.000000 5.000000 -4.000000
v -4.000000 5.000000 4.000000
v 4.000000 2.500000 -4.000000
v 4.000000 5.000000 0.000000
v -4.000000 2.500000 0.000000
v 4.000000 0.000000 0.000000
v -4.000000 5.000000 0.000000
v -4.000000 1.366515 4.000000
v -4.000000 0.000000 2.633485
v -4.000000 1.062437 3.965739
v -4.000000 0.773606 3.864672
v -4.000000 0.514507 3.701869
v -4.000000 0.298131 3.485493
v -4.000000 0.135328 3.226394
v -4.000000 0.034261 2.937563
v 4.000000 0.000000 2.633485
v 4.000000 1.366515 4.000000
v 4.000000 0.034261 2.937563
v 4.000000 0.135328 3.226394
v 4.000000 0.298131 3.485493
v 4.000000 0.514507 3.701869
v 4.000000 0.773606 3.864672
v 4.000000 1.062437 3.965739
vn -0.0000 1.0000 -0.0000
vn 1.0000 -0.0000 -0.0000
vn -0.0000 -0.0000 -1.0000
vn -1.0000 -0.0000 -0.0000
vn -0.0000 0.0561 -0.9984
vn -0.0000 0.2225 -0.9749
vn -0.0000 0.4339 -0.9010
vn -0.0000 0.6235 -0.7818
vn -0.0000 0.7818 -0.6235
vn -0.0000 0.9010 -0.4339
vn -0.0000 0.9749 -0.2225
vn -0.0000 0.9984 -0.0561
vt 0.000000 0.500000
vt 1.000000 0.500000
vt 1.000000 1.000000
vt 0.000000 1.000000
vt 1.000000 0.000000
vt 0.000000 0.000000
vt 1.000000 0.170814
vt 1.000000 0.132805
vt 1.000000 0.096701
vt 1.000000 0.064313
vt 1.000000 0.012422
vt 1.000000 0.005639
vt 1.000000 0.001428
vt 0.000000 0.001428
vt 0.000000 0.005639
vt 0.000000 0.012422
vt 0.000000 0.064313
vt 0.000000 0.096701
vt 0.000000 0.132805
vt 0.000000 0.170814
s 1
f 4/1/1 15/2/1 3/3/1 2/4/1
f 4/1/2 2/4/2 7/4/2 14/1/2
f 6/5/3 5/6/3 11/6/3 8/5/3
f 1/2/4 6/5/4 8/5/4 13/2/4
f 14/1/2 7/4/2 9/4/2 16/1/2
f 15/2/4 25/7/4 27/8/4 28/9/4 29/10/4 30/11/4 31/12/4 32/13/4 26/5/4 6/5/4 1/2/4
f 5/6/2 14/1/2 16/1/2 11/6/2
f 12/3/4 1/2/4 13/2/4 10/3/4
f 26/5/5 17/6/5 5/6/3 6/5/3
f 3/3/4 15/2/4 1/2/4 12/3/4
f 17/6/2 19/14/2 20/15/2 21/16/2 22/17/2 23/18/2 24/19/2 18/20/2 4/1/2 14/1/2 5/6/2
f 17/6/5 26/5/5 32/13/6 19/14/6
f 19/14/6 32/13/6 31/12/7 20/15/7
f 20/15/7 31/12/7 30/11/8 21/16/8
f 21/16/8 30/11/8 29/10/9 22/17/9
f 22/17/9 29/10/9 28/9/10 23/18/10
f 23/18/10 28/9/10 27/8/11 24/19/11
f 24/19/11 27/8/11 25/7/12 18/20/12
f 18/20/12 25/7/12 15/2/1 4/1/1
