# Blender 4.2.2 LTS
# www.blender.org
mtllib room_unity.mtl
o Cube
v 8.310900 -4.573929 9.956788
v 8.310900 -4.461982 10.068735
v 8.310900 6.051246 10.068735
v 8.310900 6.163193 9.956788
v 8.310900 -4.461982 -10.068735
v 8.310900 -4.573929 -9.956788
v 8.310900 6.163193 -9.956788
v 8.310900 6.051246 -10.068735
v -5.986998 -3.340040 9.602066
v -5.986998 -3.226796 9.715310
v -5.971306 -3.241672 9.731002
v -5.971306 -3.355731 9.616942
v -5.986998 5.696526 9.715310
v -5.986998 5.809769 9.602066
v -5.971306 5.825460 9.616942
v -5.971306 5.711401 9.731002
v -5.971306 -3.355731 -9.616942
v -5.971306 -3.241672 -9.731002
v -5.986998 -3.226796 -9.715310
v -5.986998 -3.340040 -9.602066
v -5.986998 5.809769 -9.602066
v -5.986998 5.696526 -9.715310
v -5.971306 5.711401 -9.731002
v -5.971306 5.825460 -9.616942
v -6.236987 -3.340040 -9.602232
v -6.236987 -3.226962 -9.715310
v -6.258151 -3.318876 -9.580769
v -6.258151 -3.205498 -9.694146
v -6.258151 -3.205498 9.694146
v -6.258151 -3.318876 9.580769
v -6.236987 -3.226962 9.715310
v -6.236987 -3.340040 9.602232
v -6.258151 5.788605 9.580769
v -6.258151 5.675227 9.694146
v -6.236987 5.809769 9.602232
v -6.236987 5.696692 9.715310
v -6.258151 5.675227 -9.694146
v -6.258151 5.788605 -9.580769
v -6.236987 5.696692 -9.715310
v -6.236987 5.809769 -9.602232
v -5.912726 -3.693464 -9.956259
v -5.912726 -3.580987 -10.068735
v -5.971306 -3.521124 -10.010156
v -5.971306 -3.634885 -9.896395
v -5.971306 -3.634885 9.896395
v -5.971306 -3.521124 10.010156
v -5.912726 -3.580987 10.068735
v -5.912726 -3.693464 9.956259
v -5.971306 5.990853 10.010156
v -5.971306 6.104613 9.896395
v -5.912726 6.163193 9.956259
v -5.912726 6.050716 10.068735
v -5.971306 6.104613 -9.896395
v -5.971306 5.990853 -10.010156
v -5.912726 6.050716 -10.068735
v -5.912726 6.163193 -9.956259
v -8.300014 -2.420333 -9.580769
v -8.300014 -2.306955 -9.694146
v -8.300014 -2.306955 9.694146
v -8.300014 -2.420333 9.580769
v -8.300014 6.687148 9.580769
v -8.300014 6.573770 9.694146
v -8.300014 6.573770 -9.694146
v -8.300014 6.687148 -9.580769
v -5.912726 2.360763 -10.068735
v 8.310900 2.023577 -10.068735
v -5.986998 2.277957 -9.715310
v -5.971306 2.281435 -9.731002
v -5.971306 2.346768 -10.010156
v -6.236987 2.277996 -9.715310
v -6.258151 2.272978 -9.694146
v -8.300014 3.171521 -9.694146
v -0.843119 -3.998400 -10.068735
v -0.843119 -4.110626 -9.956448
v -0.843119 -3.998400 10.068735
v -0.843119 -4.110626 9.956448
v -0.843119 6.163193 -9.956448
v -0.843119 6.050905 -10.068735
v -0.843119 6.163193 9.956448
v -0.843119 6.050905 10.068735
v -0.843119 2.240583 -10.068735
v 2.495886 -4.110626 -9.956572
v 2.495886 -3.998400 10.068735
v 2.495886 6.051030 -10.068735
v 2.495886 6.163193 9.956572
v 2.495886 -3.998400 -10.068735
v 2.495886 -4.110626 9.956572
v 2.495886 6.163193 -9.956572
v 2.495886 6.051030 10.068735
v 2.495886 2.161428 -10.068735
v 8.310900 2.023577 10.068735
v -5.912726 2.365053 10.068735
v -5.986998 2.285693 9.715310
v -5.971306 2.289025 9.731002
v -6.236987 2.285730 9.715310
v -5.971306 2.351640 10.010156
v -6.258151 2.280921 9.694146
v -8.300014 3.179463 9.694146
v -0.843119 2.203224 10.068735
v 2.495886 2.203300 10.068735
v 1.382884 6.163193 -9.956531
v 0.269883 6.163193 -9.956490
v 1.382884 6.050988 10.068735
v 0.269883 6.050947 10.068735
v 1.382884 3.159102 -10.068735
v 0.269883 3.185487 -10.068735
v 0.269883 6.050947 -10.068735
v 1.382884 6.050988 -10.068735
v 0.269883 6.163193 9.956489
v 1.382884 6.163193 9.956530
v 0.269883 3.098110 10.068735
v 1.382884 3.098136 10.068735
vn 0.7071 -0.7071 -0.0000
vn 0.7071 -0.0000 0.7071
vn -0.0000 -0.0000 1.0000
vn 1.0000 -0.0000 -0.0000
vn -0.0000 -0.0000 -1.0000
vn -0.0000 1.0000 -0.0000
vn -0.0000 -1.0000 -0.0000
vn 0.7071 -0.0000 -0.7071
vn 0.5899 0.8075 -0.0000
vn 0.7071 0.7071 -0.0000
vn 0.8092 0.4154 0.4154
vn 0.8092 0.4154 -0.4154
vn 0.8092 -0.4154 -0.4154
vn 0.8092 -0.4154 0.4154
vn 0.8184 0.4063 0.4063
vn 0.8184 0.4063 -0.4063
vn 0.8184 -0.4063 -0.4063
vn 0.8184 -0.4063 0.4063
vn -0.0005 0.7071 -0.7071
vn -0.0005 0.7071 0.7071
vn -0.0005 -0.7071 0.7071
vn -0.0005 -0.7071 -0.7071
vn 0.8194 0.4053 0.4053
vn 0.8194 0.4053 -0.4053
vn 0.8194 -0.4053 -0.4053
vn 0.8194 -0.4053 0.4053
vn 0.0296 0.7068 0.7067
vn 0.0581 0.7060 0.7058
vn 0.0285 0.7069 0.7068
vn 0.0276 0.7068 -0.7069
vn 0.0563 0.7059 -0.7061
vn 0.0286 0.7068 -0.7069
vn -0.0000 -0.7071 0.7071
vn -0.0000 -0.7071 -0.7071
vn 0.0397 0.9992 -0.0000
vn 0.0794 0.9968 -0.0000
vn 0.4028 0.9153 -0.0000
vn -0.2971 -0.6752 -0.6752
vn 0.2971 0.6752 -0.6752
vn 0.2971 0.6752 0.6752
vn -0.2971 -0.6752 0.6752
vn 0.0820 0.9966 -0.0000
vn 0.0410 0.9992 -0.0000
vn 0.0581 0.7060 -0.7058
vn 0.0296 0.7068 -0.7067
vn 0.0285 0.7069 -0.7068
vn 0.0276 0.7068 0.7069
vn 0.0286 0.7068 0.7069
vn 0.0563 0.7059 0.7061
vt 0.834503 0.739593
vt 0.605692 0.272369
vt 0.606621 0.271520
vt 0.836228 0.739910
vt 0.428498 0.356292
vt 0.157747 0.489753
vt 0.156688 0.490010
vt 0.428626 0.355871
vt 0.596641 0.273410
vt 0.596652 0.273404
vt 0.428501 0.356291
vt 0.622979 0.256066
vt 0.867108 0.745916
vt 0.527156 0.910105
vt 0.527155 0.998774
vt 0.621193 0.998774
vt 0.621200 0.910105
vt 0.159704 0.743027
vt 0.150102 0.495012
vt 0.150102 0.495010
vt 0.159704 0.743029
vt 0.148988 0.495306
vt 0.158163 0.743263
vt 0.130752 0.747665
vt 0.129160 0.500352
vt 0.428305 0.356867
vt 0.159267 0.489374
vt 0.157735 0.489759
vt 0.528336 0.398294
vt 0.528338 0.500000
vt 0.621211 0.500000
vt 0.621204 0.398294
vt 0.785105 0.501394
vt 0.785105 0.748606
vt 0.873774 0.748604
vt 0.873774 0.501396
vt 0.570981 0.743187
vt 0.824391 0.742384
vt 0.826044 0.742722
vt 0.571427 0.743489
vt 0.171222 0.744453
vt 0.171205 0.744453
vt 0.570984 0.743187
vt 0.605692 0.272369
vt 0.834503 0.739592
vt 0.834505 0.739597
vt 0.605690 0.272365
vt 0.156688 0.490010
vt 0.136857 0.495086
vt 0.431124 0.348271
vt 0.570353 0.742781
vt 0.822044 0.741937
vt 0.824407 0.742384
vt 0.832169 0.739144
vt 0.604443 0.273534
vt 0.605690 0.272365
vt 0.136857 0.495086
vt 0.132613 0.496193
vt 0.431668 0.346666
vt 0.151614 0.494640
vt 0.161773 0.742682
vt 0.159704 0.743029
vt 0.150102 0.495010
vt 0.150102 0.495012
vt 0.159704 0.743027
vt 0.579700 0.748870
vt 0.856967 0.748737
vt 0.863580 0.750000
vt 0.581464 0.750000
vt 0.875000 0.747860
vt 0.875000 0.502140
vt 0.873774 0.748604
vt 0.129160 0.500352
vt 0.130752 0.747665
vt 0.126226 0.748604
vt 0.126226 0.501396
vt 0.826044 0.742722
vt 0.856967 0.748737
vt 0.171222 0.744453
vt 0.169763 0.744699
vt 0.596641 0.273410
vt 0.597504 0.272568
vt 0.173306 0.744112
vt 0.171205 0.744453
vt 0.595383 0.274577
vt 0.157747 0.489753
vt 0.157735 0.489759
vt 0.824390 0.742384
vt 0.142306 0.749081
vt 0.136420 0.750000
vt 0.874559 0.749534
vt 0.875000 0.749273
vt 0.875000 0.500727
vt 0.874559 0.500465
vt 0.169763 0.744699
vt 0.142306 0.749081
vt 0.378800 0.339895
vt 0.378807 0.251226
vt 0.375000 0.251226
vt 0.375000 0.339895
vt 0.273294 0.750000
vt 0.375000 0.750000
vt 0.375000 0.748610
vt 0.273294 0.748608
vt 0.597504 0.272568
vt 0.613870 0.257095
vt 0.873774 0.500000
vt 0.785105 0.500000
vt 0.726706 0.748608
vt 0.625000 0.748610
vt 0.625000 0.750000
vt 0.726706 0.750000
vt 0.244020 0.000088
vt 0.244020 0.999912
vt 0.000077 0.999923
vt 0.000077 0.000077
vt 0.570353 0.742781
vt 0.428305 0.356867
vt 0.617387 0.253807
vt 0.378796 0.398294
vt 0.378789 0.500000
vt 0.528335 0.339895
vt 0.528334 0.251226
vt 0.596765 0.000104
vt 0.596766 0.999896
vt 0.384093 0.999906
vt 0.384093 0.000094
vt 0.785105 0.750000
vt 0.873774 0.750000
vt 0.765639 0.501393
vt 0.765639 0.500000
vt 0.126226 0.750000
vt 0.214895 0.750000
vt 0.214895 0.748606
vt 0.375000 0.398294
vt 0.765639 0.748607
vt 0.621200 0.339895
vt 0.621193 0.251226
vt 0.527156 0.890639
vt 0.621201 0.890639
vt 0.527159 0.750000
vt 0.527157 0.851706
vt 0.621204 0.851706
vt 0.621211 0.750000
vt 0.625000 0.501390
vt 0.726706 0.501392
vt 0.375000 0.500000
vt 0.726706 0.500000
vt 0.625000 0.500000
vt 0.746172 0.748607
vt 0.746172 0.750000
vt 0.528336 0.378828
vt 0.621203 0.378828
vt 0.378789 0.750000
vt 0.378796 0.851706
vt 0.378800 0.910105
vt 0.378807 0.998774
vt 0.528336 0.359361
vt 0.621201 0.359361
vt 0.765639 0.750000
vt 0.527157 0.871172
vt 0.621203 0.871172
vt 0.746172 0.501393
vt 0.746172 0.500000
s 1
usemtl Walls
f 14/1/1 21/2/1 24/3/1 15/4/1
f 67/5/2 19/6/2 18/7/2 68/8/2
f 67/5/3 22/9/3 39/10/3 70/11/3
f 15/4/4 24/3/4 53/12/4 50/13/4
f 99/14/5 92/15/5 52/16/5 80/17/5
f 9/18/6 20/19/6 25/20/6 32/21/6
f 17/22/4 12/23/4 45/24/4 44/25/4
f 71/26/2 28/27/2 26/28/2 70/11/2
f 90/29/3 66/30/3 8/31/3 84/32/3
f 77/33/7 79/34/7 51/35/7 56/36/7
f 93/37/8 13/38/8 16/39/8 94/40/8
f 93/37/5 10/41/5 31/42/5 95/43/5
f 21/44/7 14/45/7 35/46/7 40/47/7
f 68/8/4 18/48/4 43/49/4 69/50/4
f 97/51/8 34/52/8 36/53/8 95/43/8
f 33/54/1 38/55/1 40/56/1 35/46/1
f 69/50/2 43/57/2 42/58/2 65/59/2
f 27/60/9 30/61/9 32/62/10 25/63/10
f 20/64/10 9/65/10 12/23/10 17/22/10
f 96/66/8 49/67/8 52/68/8 92/69/8
f 50/70/1 53/71/1 56/36/1 51/72/1
f 44/73/10 45/74/10 48/75/10 41/76/10
f 94/40/4 16/77/4 49/78/4 96/66/4
f 18/7/11 19/6/11 20/64/11 17/22/11
f 10/79/12 11/80/12 12/23/12 9/65/12
f 14/1/13 15/4/13 16/39/13 13/38/13
f 22/81/14 23/82/14 24/3/14 21/2/14
f 26/28/15 28/27/15 27/60/15 25/63/15
f 29/83/16 31/84/16 32/62/16 30/61/16
f 33/54/17 35/46/17 36/53/17 34/52/17
f 37/85/18 39/10/18 40/56/18 38/55/18
f 31/42/19 10/41/19 9/18/19 32/21/19
f 19/86/20 26/87/20 25/20/20 20/19/20
f 21/44/21 40/47/21 39/10/21 22/9/21
f 35/46/22 14/45/22 13/88/22 36/53/22
f 42/58/23 43/57/23 44/73/23 41/76/23
f 46/89/24 47/90/24 48/75/24 45/74/24
f 50/70/25 51/72/25 52/91/25 49/92/25
f 54/93/26 55/94/26 56/36/26 53/71/26
f 43/49/4 18/48/4 17/22/4 44/25/4
f 11/95/4 46/96/4 45/24/4 12/23/4
f 73/97/27 42/98/28 41/99/28 74/100/29
f 83/101/30 2/102/31 1/103/31 87/104/32
f 53/12/4 24/3/4 23/105/4 54/106/4
f 77/33/33 56/36/33 55/107/33 78/108/33
f 15/4/4 50/13/4 49/78/4 16/77/4
f 85/109/34 4/110/34 3/111/34 89/112/34
f 30/61/9 27/60/9 57/60/37 60/61/37
f 33/54/38 34/52/38 62/52/38 61/54/38
f 29/83/39 30/61/39 60/61/39 59/83/39
f 27/60/40 28/27/40 58/27/40 57/60/40
f 97/51/5 29/83/5 59/83/5 98/117/5
f 71/26/3 37/85/3 63/85/3 72/118/3
f 37/85/41 38/55/41 64/55/41 63/85/41
f 58/27/4 72/118/4 63/85/4 64/55/4 61/54/4 62/52/4 98/117/4 59/83/4 60/61/4 57/60/4
f 28/27/3 71/26/3 72/118/3 58/27/3
f 54/106/2 69/50/2 65/59/2 55/119/2
f 23/105/4 68/8/4 69/50/4 54/106/4
f 86/120/3 5/121/3 66/30/3 90/29/3
f 37/85/2 71/26/2 70/11/2 39/10/2
f 19/86/3 67/5/3 70/11/3 26/87/3
f 22/81/2 67/5/2 68/8/2 23/82/2
f 42/98/3 73/97/3 81/122/3 65/123/3
f 51/35/34 79/34/34 80/128/34 52/129/34
f 102/130/33 77/33/33 78/108/33 107/131/33
f 47/132/44 75/133/45 76/134/46 48/75/44
f 86/120/47 73/97/27 74/100/29 82/135/48
f 102/130/7 109/136/7 79/34/7 77/33/7
f 65/123/3 81/122/3 78/137/3 55/138/3
f 111/139/5 99/14/5 80/17/5 104/140/5
f 91/141/5 100/142/5 89/143/5 3/144/5
f 7/145/7 4/110/7 85/109/7 88/146/7
f 5/121/49 86/120/47 82/135/48 6/147/49
f 7/145/33 88/146/33 84/148/33 8/149/33
f 110/150/34 85/109/34 89/112/34 103/151/34
f 75/133/45 83/101/30 87/104/32 76/134/46
f 105/152/3 90/29/3 84/32/3 108/153/3
f 2/154/5 83/155/5 100/142/5 91/141/5
f 34/52/5 97/51/5 98/117/5 62/52/5
f 11/95/4 94/40/4 96/66/4 46/96/4
f 46/89/8 96/66/8 92/69/8 47/90/8
f 29/83/8 97/51/8 95/43/8 31/84/8
f 13/88/5 93/37/5 95/43/5 36/53/5
f 10/79/8 93/37/8 94/40/8 11/80/8
f 75/156/5 47/157/5 92/15/5 99/14/5
f 81/122/3 106/158/3 107/159/3 78/137/3
f 106/158/3 105/152/3 108/153/3 107/159/3
f 79/34/34 109/136/34 104/160/34 80/128/34
f 109/136/34 110/150/34 103/151/34 104/160/34
f 100/142/5 112/161/5 103/162/5 89/143/5
f 112/161/5 111/139/5 104/140/5 103/162/5
f 88/146/7 85/109/7 110/150/7 101/163/7
f 101/163/7 110/150/7 109/136/7 102/130/7
f 88/146/33 101/163/33 108/164/33 84/148/33
f 101/163/33 102/130/33 107/131/33 108/164/33
usemtl Floor
f 82/113/35 87/114/35 1/115/36 6/116/36
f 41/124/42 48/125/42 76/126/43 74/127/43
f 74/127/43 76/126/43 87/114/35 82/113/35
o DoorFrame_1
v -0.843119 -3.998400 -10.086764
v -0.843119 2.240583 -10.086764
v 2.495886 -3.998400 -10.086764
v 2.495886 2.161428 -10.086764
v -1.001503 -4.182662 -10.086764
v -1.001503 2.424845 -10.086764
v 2.654270 -4.182662 -10.086764
v 2.654270 2.341014 -10.086764
v -0.843119 -3.998400 -9.763886
v 2.495886 -3.998400 -9.763886
v 2.495886 2.161428 -9.763886
v -0.843119 2.240583 -9.763886
v -1.001503 -4.182662 -9.763886
v 2.654270 -4.182662 -9.763886
v 2.654270 2.341014 -9.763886
v -1.001503 2.424845 -9.763886
v 1.409282 2.987063 -10.086764
v 0.243485 3.022703 -10.086764
v 1.409282 3.231751 -10.086764
v 0.243485 3.269496 -10.086764
v 1.409282 2.987063 -9.763886
v 0.243485 3.022703 -9.763886
v 1.409282 3.231751 -9.763886
v 0.243485 3.269496 -9.763886
vn -0.0000 -0.0000 -1.0000
vn -0.0000 -0.0000 1.0000
vn -1.0000 -0.0000 -0.0000
vn -0.0000 -1.0000 -0.0000
vn 1.0000 -0.0000 -0.0000
vn -0.0000 1.0000 -0.0000
vn -0.5614 0.8275 -0.0000
vn -0.6050 -0.7962 -0.0000
vn 0.5842 -0.8116 -0.0000
vn -0.0306 -0.9995 -0.0000
vn 0.5819 0.8133 -0.0000
vn 0.0324 0.9995 -0.0000
vt 0.000000 0.000000
s 1
usemtl Glass
f 113/165/50 117/165/50 118/165/50 114/165/50
f 115/165/50 119/165/50 117/165/50 113/165/50
f 116/165/50 120/165/50 119/165/50 115/165/50
f 129/165/50 131/165/50 120/165/50 116/165/50
f 121/165/51 124/165/51 128/165/51 125/165/51
f 122/165/51 121/165/51 125/165/51 126/165/51
f 123/165/51 122/165/51 126/165/51 127/165/51
f 133/165/51 123/165/51 127/165/51 135/165/51
f 118/165/52 117/165/52 125/165/52 128/165/52
f 117/165/53 119/165/53 126/165/53 125/165/53
f 113/165/54 114/165/54 124/165/54 121/165/54
f 115/165/55 113/165/55 121/165/55 122/165/55
f 119/165/54 120/165/54 127/165/54 126/165/54
f 132/165/56 118/165/56 128/165/56 136/165/56
f 116/165/52 115/165/52 122/165/52 123/165/52
f 129/165/57 116/165/57 123/165/57 133/165/57
f 114/165/58 130/165/58 134/165/58 124/165/58
f 130/165/59 129/165/59 133/165/59 134/165/59
f 120/165/60 131/165/60 135/165/60 127/165/60
f 131/165/61 132/165/61 136/165/61 135/165/61
f 124/165/51 134/165/51 136/165/51 128/165/51
f 134/165/51 133/165/51 135/165/51 136/165/51
f 114/165/50 118/165/50 132/165/50 130/165/50
f 130/165/50 132/165/50 131/165/50 129/165/50
o DoorFrame_1.001
v -0.843119 -3.998400 9.800821
v -0.843119 2.240583 9.800821
v 2.495886 -3.998400 9.800821
v 2.495886 2.161428 9.800821
v -1.001503 -4.182662 9.800821
v -1.001503 2.424845 9.800821
v 2.654270 -4.182662 9.800821
v 2.654270 2.341014 9.800821
v -0.843119 -3.998400 10.123699
v 2.495886 -3.998400 10.123699
v 2.495886 2.161428 10.123699
v -0.843119 2.240583 10.123699
v -1.001503 -4.182662 10.123699
v 2.654270 -4.182662 10.123699
v 2.654270 2.341014 10.123699
v -1.001503 2.424845 10.123699
v 1.409282 3.004883 9.800821
v 0.243485 3.004883 9.800821
v 1.409282 3.250624 9.800821
v 0.243485 3.250624 9.800821
v 1.409282 3.004883 10.123699
v 0.243485 3.004883 10.123699
v 1.409282 3.250624 10.123699
v 0.243485 3.250624 10.123699
vn -0.0000 -0.0000 -1.0000
vn -0.0000 -0.0000 1.0000
vn -1.0000 -0.0000 -0.0000
vn -0.0000 -1.0000 -0.0000
vn 1.0000 -0.0000 -0.0000
vn -0.0000 1.0000 -0.0000
vn -0.5527 0.8333 -0.0000
vn -0.6132 -0.7899 -0.0000
vn 0.5753 -0.8179 -0.0000
vn 0.5899 0.8074 -0.0000
vt 0.000000 0.000000
s 1
usemtl Glass
f 137/166/62 141/166/62 142/166/62 138/166/62
f 139/166/62 143/166/62 141/166/62 137/166/62
f 140/166/62 144/166/62 143/166/62 139/166/62
f 153/166/62 155/166/62 144/166/62 140/166/62
f 145/166/63 148/166/63 152/166/63 149/166/63
f 146/166/63 145/166/63 149/166/63 150/166/63
f 147/166/63 146/166/63 150/166/63 151/166/63
f 157/166/63 147/166/63 151/166/63 159/166/63
f 142/166/64 141/166/64 149/166/64 152/166/64
f 141/166/65 143/166/65 150/166/65 149/166/65
f 137/166/66 138/166/66 148/166/66 145/166/66
f 139/166/67 137/166/67 145/166/67 146/166/67
f 143/166/66 144/166/66 151/166/66 150/166/66
f 156/166/68 142/166/68 152/166/68 160/166/68
f 140/166/64 139/166/64 146/166/64 147/166/64
f 153/166/69 140/166/69 147/166/69 157/166/69
f 138/166/70 154/166/70 158/166/70 148/166/70
f 154/166/65 153/166/65 157/166/65 158/166/65
f 144/166/71 155/166/71 159/166/71 151/166/71
f 155/166/67 156/166/67 160/166/67 159/166/67
f 148/166/63 158/166/63 160/166/63 152/166/63
f 158/166/63 157/166/63 159/166/63 160/166/63
f 138/166/62 142/166/62 156/166/62 154/166/62
f 154/166/62 156/166/62 155/166/62 153/166/62
o Cube.001
v -0.843119 -4.034837 -9.853769
v -0.843119 2.204146 -9.853769
v 2.495886 -4.034837 -9.853769
v 2.495886 2.124991 -9.853769
v 1.382884 3.122665 -9.853769
v 0.269883 3.149050 -9.853769
v 0.826384 -4.034837 -9.853769
v 0.826384 3.135857 -9.853769
v 0.651903 3.139994 -9.853769
v 1.000864 3.131721 -9.853769
v 1.000864 -4.034837 -9.853769
v 0.651903 -4.034837 -9.853769
v 0.651903 -4.034837 -9.827731
v 0.826384 -4.034837 -9.775953
v 1.000864 3.131721 -9.827731
v 0.826384 3.135857 -9.775953
v 0.651903 3.139994 -9.827731
v 1.000864 -4.034837 -9.827731
v 0.651903 -4.034837 -9.924754
v 0.826384 -4.034837 -9.924754
v 0.269883 3.149050 -9.924754
v -0.843119 2.341198 -9.924754
v -0.843119 -4.034837 -9.924754
v 2.495886 -4.034837 -9.924754
v 2.495886 2.262044 -9.924754
v 1.382884 3.122665 -9.924754
v 1.000864 3.131721 -9.924754
v 0.826384 3.135857 -9.924754
v 0.651903 3.139994 -9.924754
v 1.000864 -4.034837 -9.924754
vn -0.0000 -1.0000 -0.0000
vn -1.0000 -0.0000 -0.0000
vn -0.2845 -0.0000 0.9587
vn 0.2845 -0.0000 0.9587
vn 0.0237 0.9997 -0.0000
vn 1.0000 -0.0000 -0.0000
vn -0.0000 -0.0000 1.0000
vn -0.5149 -0.6168 -0.5954
vn -0.0237 -0.9997 -0.0000
vn -0.0000 1.0000 -0.0000
vn 0.4929 -0.6260 -0.6043
vt 0.000000 0.000000
s 1
usemtl Glass
f 172/167/72 167/167/72 174/167/72 173/167/72
f 163/167/73 164/167/73 185/167/73 184/167/73
f 167/167/72 171/167/72 178/167/72 174/167/72
f 168/167/76 169/167/76 177/167/76 176/167/76
f 170/167/76 168/167/76 176/167/76 175/167/76
f 171/167/72 167/167/72 180/167/72 190/167/72
f 164/167/79 165/167/79 186/167/79 185/167/79
f 169/167/80 166/167/80 181/167/80 189/167/80
f 161/167/81 172/167/81 179/167/81 183/167/81
f 168/167/76 170/167/76 187/167/76 188/167/76
f 167/167/72 172/167/72 179/167/72 180/167/72
f 171/167/81 163/167/81 184/167/81 190/167/81
f 166/167/82 162/167/82 182/167/82 181/167/82
f 165/167/80 170/167/80 187/167/80 186/167/80
f 169/167/76 168/167/76 188/167/76 189/167/76
f 162/167/77 161/167/77 183/167/77 182/167/77
usemtl Walls
f 172/167/73 169/167/73 189/167/73 179/167/73
f 177/167/74 173/167/74 174/167/74 176/167/74
f 176/167/75 174/167/75 178/167/75 175/167/75
f 171/167/77 170/167/77 175/167/77 178/167/77
f 169/167/73 172/167/73 173/167/73 177/167/73
f 190/167/78 184/167/78 185/167/78 186/167/78 187/167/78
f 181/167/78 182/167/78 183/167/78 179/167/78 189/167/78
f 170/167/77 171/167/77 190/167/77 187/167/77
o Cube.002
v 2.493297 -4.001615 9.982046
v 2.493297 2.237368 9.982046
v -0.845707 -4.001615 9.982048
v -0.845707 2.158213 9.982048
v 0.267294 3.155887 9.982047
v 1.380296 3.182272 9.982047
v 0.823795 -4.001615 9.982047
v 0.823795 3.169079 9.982047
v 0.998275 3.173216 9.982047
v 0.649314 3.164943 9.982047
v 0.649314 -4.001615 9.982047
v 0.998275 -4.001615 9.982047
v 0.998275 -4.001615 9.956009
v 0.823795 -4.001615 9.904231
v 0.649314 3.164943 9.956009
v 0.823795 3.169079 9.904231
v 0.998275 3.173216 9.956009
v 0.649314 -4.001615 9.956009
v 0.998275 -4.001615 10.053032
v 0.823795 -4.001615 10.053032
v 1.380296 3.182272 10.053032
v 2.493297 2.374420 10.053031
v 2.493297 -4.001615 10.053031
v -0.845707 -4.001615 10.053033
v -0.845707 2.295266 10.053033
v 0.267294 3.155887 10.053032
v 0.649314 3.164943 10.053032
v 0.823795 3.169079 10.053032
v 0.998275 3.173216 10.053032
v 0.649314 -4.001615 10.053032
vn -0.0000 -1.0000 -0.0000
vn 1.0000 -0.0000 -0.0000
vn 0.2845 -0.0000 -0.9587
vn -0.2845 -0.0000 -0.9587
vn -0.0237 0.9997 -0.0000
vn -1.0000 -0.0000 -0.0000
vn -0.0000 -0.0000 -1.0000
vn 0.5149 -0.6168 0.5954
vn 0.0237 -0.9997 -0.0000
vn -0.0000 1.0000 -0.0000
vn -0.4929 -0.6260 0.6043
vt 0.000000 0.000000
s 1
usemtl Glass
f 202/168/83 197/168/83 204/168/83 203/168/83
f 193/168/84 194/168/84 215/168/84 214/168/84
f 197/168/83 201/168/83 208/168/83 204/168/83
f 198/168/87 199/168/87 207/168/87 206/168/87
f 200/168/87 198/168/87 206/168/87 205/168/87
f 201/168/83 197/168/83 210/168/83 220/168/83
f 194/168/90 195/168/90 216/168/90 215/168/90
f 199/168/91 196/168/91 211/168/91 219/168/91
f 191/168/92 202/168/92 209/168/92 213/168/92
f 198/168/87 200/168/87 217/168/87 218/168/87
f 197/168/83 202/168/83 209/168/83 210/168/83
f 201/168/92 193/168/92 214/168/92 220/168/92
f 196/168/93 192/168/93 212/168/93 211/168/93
f 195/168/91 200/168/91 217/168/91 216/168/91
f 199/168/87 198/168/87 218/168/87 219/168/87
f 192/168/88 191/168/88 213/168/88 212/168/88
usemtl Walls
f 202/168/84 199/168/84 219/168/84 209/168/84
f 207/168/85 203/168/85 204/168/85 206/168/85
f 206/168/86 204/168/86 208/168/86 205/168/86
f 201/168/88 200/168/88 205/168/88 208/168/88
f 199/168/84 202/168/84 203/168/84 207/168/84
f 220/168/89 214/168/89 215/168/89 216/168/89 217/168/89
f 211/168/89 212/168/89 213/168/89 209/168/89 219/168/89
f 200/168/88 201/168/88 220/168/88 217/168/88
